# Blender 4.3.2
# www.blender.org
o Chest
v -9.411145 3.000000 0.882311
v -9.430759 4.600000 0.960445
v -9.411145 3.000000 -0.882311
v -9.430759 4.600000 -0.960445
v -11.000000 3.000000 -0.882311
v -11.000000 4.600000 -0.960445
v -11.000000 3.000000 0.882311
v -11.000000 4.600000 0.960445
v -11.000000 5.691577 -0.630222
v -11.000000 6.523347 -0.150000
v -9.430759 6.523347 -0.150000
v -9.130759 5.504130 -1.566000
v -9.130759 6.153111 -1.429623
v -9.130759 6.595708 -0.935777
v -11.000000 5.504130 -1.566000
v -11.000000 6.153111 -1.429623
v -11.000000 6.595708 -0.935777
v -9.130759 5.691577 -0.630222
v -9.130759 4.000000 -1.260445
v -11.000000 4.000000 -1.260445
v -9.130759 4.000000 1.260445
v -11.000000 4.000000 1.260445
v -11.000000 4.859808 -1.110445
v -9.430759 4.859807 -1.110445
v -9.130759 4.600000 1.260445
v -11.000000 4.600000 1.260445
v -11.000000 4.600000 -1.260445
v -9.130759 4.600000 -1.260445
v -9.130759 6.783154 -0.000000
v -11.000000 6.783154 -0.000000
v -9.430759 5.691577 -0.630222
v -10.869743 4.000000 1.260445
v -11.000000 4.000000 1.260445
v -10.891709 4.600000 1.260445
v -11.000000 4.600000 1.260445
v -10.963915 4.496406 1.460445
v -11.000000 4.496406 1.460445
v -10.869743 4.000000 1.460445
v -11.000000 4.000000 1.460445
v -10.730759 4.400000 1.260445
v -10.844894 4.200000 1.260445
v -10.881575 4.396792 1.460445
v -11.000000 4.396792 1.460445
v -10.891709 4.600000 1.460445
v -11.000000 4.600000 1.460445
v -10.730759 4.400000 1.460445
v -10.844894 4.200000 1.460445
v -11.000000 4.302847 1.460445
v -11.000000 4.141315 1.460445
v -10.945939 4.302847 1.460445
v -10.958269 4.141315 1.460445
v -12.588855 3.000000 0.882311
v -12.569241 4.600000 0.960445
v -12.588855 3.000000 -0.882311
v -12.569241 4.600000 -0.960445
v -12.569241 6.523347 -0.150000
v -12.869241 5.504130 -1.566000
v -12.869241 6.153111 -1.429623
v -12.869241 6.595708 -0.935777
v -12.869241 5.691577 -0.630222
v -12.869241 4.000000 -1.260445
v -12.869241 4.000000 1.260445
v -12.569241 4.859807 -1.110445
v -12.869241 4.600000 1.260445
v -12.869241 4.600000 -1.260445
v -12.869241 6.783154 -0.000000
v -12.569241 5.691577 -0.630222
v -11.130257 4.000000 1.260445
v -11.108291 4.600000 1.260445
v -11.036085 4.496406 1.460445
v -11.130257 4.000000 1.460445
v -11.269241 4.400000 1.260445
v -11.155106 4.200000 1.260445
v -11.118425 4.396792 1.460445
v -11.108291 4.600000 1.460445
v -11.269241 4.400000 1.460445
v -11.155106 4.200000 1.460445
v -11.054061 4.302847 1.460445
v -11.041731 4.141315 1.460445
vn -0.0000 1.0000 -0.0000
vn -0.0000 -0.3537 -0.9354
vn -0.0000 -1.0000 -0.0000
vn 0.9629 -0.2700 -0.0000
vn -0.0000 -0.0000 1.0000
vn -0.0000 -0.5000 0.8660
vn -0.0000 0.9805 -0.1964
vn -0.0000 -0.3202 -0.9474
vn -0.0000 0.2056 -0.9786
vn -0.0000 0.7447 -0.6674
vn 1.0000 -0.0000 -0.0000
vn -0.0000 -0.3537 0.9354
vn -0.0000 -0.0000 -1.0000
vn 0.7791 0.6269 -0.0000
vn 0.9924 -0.1233 -0.0000
vn 0.8685 -0.4956 -0.0000
vn -0.9629 -0.2700 -0.0000
vn -1.0000 -0.0000 -0.0000
vn -0.7791 0.6269 -0.0000
vn -0.9924 -0.1233 -0.0000
vn -0.8685 -0.4956 -0.0000
vt 0.625000 0.720249
vt 0.625000 0.529751
vt 0.625000 0.720249
vt 0.500000 0.375000
vt 0.500000 0.500000
vt 0.375000 0.500000
vt 0.375000 0.375000
vt 0.250000 0.500000
vt 0.375000 0.750000
vt 0.250000 0.750000
vt 0.500000 0.750000
vt 0.625000 0.750000
vt 0.625000 0.875000
vt 0.500000 0.875000
vt 0.606210 0.529751
vt 0.546053 0.625000
vt 0.606210 0.529751
vt 0.606210 0.720249
vt 0.606210 0.720249
vt 0.625000 0.687500
vt 0.750000 0.687500
vt 0.750000 0.750000
vt 0.625000 0.500000
vt 0.750000 0.500000
vt 0.750000 0.562500
vt 0.625000 0.562500
vt 0.750000 0.625000
vt 0.625000 0.625000
vt 0.375000 0.875000
vt 0.625000 0.375000
vt 0.581862 0.789770
vt 0.609696 0.815619
vt 0.609696 0.875000
vt 0.583333 0.875000
vt 0.583333 0.750000
vt 0.541667 0.750000
vt 0.512470 0.801709
vt 0.513728 0.875000
vt 0.541667 0.797159
vt 0.541667 0.875000
s 0
f 2/1/1 4/2/1 6/2/1 8/3/1
f 20/4/2 19/5/2 3/6/2 5/7/2
f 5/8/3 3/6/3 1/9/3 7/10/3
f 19/5/4 21/11/4 1/9/4 3/6/4
f 21/11/5 25/12/5 26/13/5 22/14/5
f 24/15/6 31/16/6 9/16/6 23/17/6
f 31/16/6 11/18/6 10/19/6 9/16/6
f 14/20/7 17/21/7 30/22/7 29/12/7
f 28/23/8 27/24/8 15/25/8 12/26/8
f 12/26/9 15/25/9 16/27/9 13/28/9
f 13/28/10 16/27/10 17/21/10 14/20/10
f 18/16/11 13/28/11 14/20/11 29/12/11
f 18/16/11 28/23/11 12/26/11 13/28/11
f 1/9/12 21/11/12 22/14/12 7/29/12
f 28/23/11 25/12/11 21/11/11 19/5/11
f 27/30/13 28/23/13 19/5/13 20/4/13
f 6/2/1 4/2/1 28/23/1 27/23/1
f 2/1/1 8/3/1 26/12/1 25/12/1
f 4/2/1 2/1/1 25/12/1 28/23/1
f 24/15/6 23/17/6 27/23/6 28/23/6
f 10/19/6 11/18/6 29/12/6 30/12/6
f 31/16/6 24/15/6 28/23/6 18/16/6
f 11/18/6 31/16/6 18/16/6 29/12/6
f 42/31/5 36/32/5 37/33/5 43/34/5
f 33/14/3 32/11/3 38/11/3 39/14/3
f 40/35/14 34/12/14 44/12/14 46/35/14
f 34/12/1 35/13/1 45/13/1 44/12/1
f 32/11/15 41/36/15 47/36/15 38/11/15
f 41/36/16 40/35/16 46/35/16 47/36/16
f 38/11/5 51/37/5 49/38/5 39/14/5
f 50/39/5 47/36/5 46/35/5 42/31/5
f 37/33/5 36/32/5 44/12/5 45/13/5
f 36/32/5 42/31/5 46/35/5 44/12/5
f 50/39/5 42/31/5 43/34/5 48/40/5
f 49/38/5 51/37/5 50/39/5 48/40/5
f 51/37/5 38/11/5 47/36/5 50/39/5
f 53/1/1 8/3/1 6/2/1 55/2/1
f 20/4/2 5/7/2 54/6/2 61/5/2
f 5/8/3 7/10/3 52/9/3 54/6/3
f 61/5/17 54/6/17 52/9/17 62/11/17
f 62/11/5 22/14/5 26/13/5 64/12/5
f 63/15/6 23/17/6 9/16/6 67/16/6
f 67/16/6 9/16/6 10/19/6 56/18/6
f 59/20/7 66/12/7 30/22/7 17/21/7
f 65/23/8 57/26/8 15/25/8 27/24/8
f 57/26/9 58/28/9 16/27/9 15/25/9
f 58/28/10 59/20/10 17/21/10 16/27/10
f 60/16/18 66/12/18 59/20/18 58/28/18
f 60/16/18 58/28/18 57/26/18 65/23/18
f 52/9/12 7/29/12 22/14/12 62/11/12
f 65/23/18 61/5/18 62/11/18 64/12/18
f 27/30/13 20/4/13 61/5/13 65/23/13
f 6/2/1 27/23/1 65/23/1 55/2/1
f 53/1/1 64/12/1 26/12/1 8/3/1
f 55/2/1 65/23/1 64/12/1 53/1/1
f 63/15/6 65/23/6 27/23/6 23/17/6
f 10/19/6 30/12/6 66/12/6 56/18/6
f 67/16/6 60/16/6 65/23/6 63/15/6
f 56/18/6 66/12/6 60/16/6 67/16/6
f 74/31/5 43/34/5 37/33/5 70/32/5
f 33/14/3 39/14/3 71/11/3 68/11/3
f 72/35/19 76/35/19 75/12/19 69/12/19
f 69/12/1 75/12/1 45/13/1 35/13/1
f 68/11/20 71/11/20 77/36/20 73/36/20
f 73/36/21 77/36/21 76/35/21 72/35/21
f 71/11/5 39/14/5 49/38/5 79/37/5
f 78/39/5 74/31/5 76/35/5 77/36/5
f 37/33/5 45/13/5 75/12/5 70/32/5
f 70/32/5 75/12/5 76/35/5 74/31/5
f 78/39/5 48/40/5 43/34/5 74/31/5
f 49/38/5 48/40/5 78/39/5 79/37/5
f 79/37/5 78/39/5 77/36/5 71/11/5
