# Blender 4.3.2
# www.blender.org
o Coral
v 12.000000 1.000000 -1.000000
v 11.292893 1.000000 -0.707107
v 11.000000 1.000000 0.000000
v 11.292893 1.000000 0.707107
v 12.000000 1.000000 1.000000
v 12.707107 1.000000 0.707107
v 13.000000 1.000000 0.000000
v 12.707107 1.000000 -0.707107
v 11.976474 1.813324 -0.930391
v 11.415570 2.268029 -0.731965
v 11.234924 2.200000 -0.100000
v 11.345168 2.215827 0.390612
v 12.012019 1.646242 0.867085
v 12.540990 2.200000 0.440990
v 12.765076 2.200000 -0.100000
v 12.524336 2.268029 -0.731965
v 11.973048 2.944018 -0.839444
v 11.642088 3.099873 -0.849841
v 11.447147 3.030779 -0.441784
v 11.575729 3.008300 -0.011148
v 12.079654 2.955537 0.184240
v 12.483928 3.074261 -0.033287
v 12.611592 3.040427 -0.447179
v 12.384289 3.092926 -0.847912
v 12.177109 4.372995 -1.320713
v 11.910457 4.404059 -1.209404
v 11.842914 4.467363 -0.937977
v 12.019242 4.521736 -0.664887
v 12.331226 4.538999 -0.550564
v 12.590683 4.511519 -0.662049
v 12.651053 4.453502 -0.934126
v 12.481897 4.395171 -1.206935
v 12.509920 5.606327 -0.909421
v 12.303375 5.551793 -0.838138
v 12.224349 5.420501 -0.666039
v 12.318865 5.288969 -0.495353
v 12.535236 5.232714 -0.424861
v 12.744074 5.283346 -0.497085
v 12.825686 5.414249 -0.667712
v 12.728584 5.549765 -0.837711
v 12.781226 6.808346 0.055326
v 12.568622 6.738490 0.108948
v 12.480557 6.569844 0.238405
v 12.568622 6.401197 0.367862
v 12.781226 6.331342 0.421485
v 12.993831 6.401197 0.367862
v 13.081895 6.569844 0.238405
v 12.993831 6.738490 0.108948
v 12.781226 7.740486 1.257197
v 12.628515 7.693621 1.305336
v 12.561466 7.566164 1.391011
v 12.628515 7.451349 1.491310
v 12.781226 7.391842 1.524825
v 12.933937 7.451349 1.491310
v 13.000986 7.566164 1.391011
v 12.933937 7.693621 1.305336
v 11.966349 3.161363 0.735403
v 11.576471 2.944525 1.075823
v 11.705738 2.793190 1.391698
v 12.269917 2.793190 1.391698
v 12.368270 2.944525 1.075823
v 11.894343 3.698283 0.774336
v 11.526578 3.512892 1.121316
v 11.640244 3.418839 1.423704
v 12.150940 3.418839 1.423704
v 12.243269 3.512892 1.121316
v 11.835699 4.363045 0.717286
v 11.500028 4.141594 1.025061
v 11.835699 4.001667 1.400373
v 12.171370 4.141594 1.025061
v 11.764540 5.429452 1.485793
v 11.450916 5.170787 1.633193
v 11.672713 4.902746 1.796395
v 12.013461 5.170787 1.633193
v 11.493386 5.668644 2.231302
v 11.246558 5.449423 2.326711
v 11.487421 5.250160 2.402254
v 11.736012 5.449423 2.326711
v 11.776147 2.894331 1.705253
v 12.189373 2.894331 1.705253
v 11.738461 3.234277 1.723415
v 12.137418 3.234277 1.723415
v 11.976579 3.019715 -1.445929
v 11.587726 2.769644 -1.569767
v 11.961554 2.563320 -1.695202
v 12.354481 2.766233 -1.570057
v 12.036658 3.362384 -2.287984
v 11.653211 3.174682 -2.482877
v 12.036658 3.028493 -2.667184
v 12.420107 3.174682 -2.482877
v 11.706254 4.100437 -2.743551
v 11.497413 4.091778 -2.985581
v 11.798246 4.093560 -3.195047
v 12.012258 4.096627 -2.985165
v 11.336334 4.942912 -2.633425
v 11.132858 5.000040 -2.809390
v 11.336339 5.072485 -2.943186
v 11.539817 4.999974 -2.809395
v 12.781226 7.591448 1.420260
vn 0.0050 0.0489 -0.9988
vn -0.7272 0.0885 -0.6807
vn -0.9884 0.1514 0.0102
vn -0.6999 0.2167 0.6806
vn 0.0007 0.2481 0.9687
vn 0.6940 0.2319 0.6816
vn 0.9818 0.1880 0.0273
vn 0.7170 0.1085 -0.6886
vn -0.0032 -0.1831 -0.9831
vn -0.7658 0.0371 -0.6420
vn -0.9759 0.2183 0.0023
vn -0.7916 0.2891 0.5383
vn 0.0124 0.1231 0.9923
vn 0.7725 0.2701 0.5748
vn 0.9812 0.1921 0.0188
vn 0.7368 0.0104 -0.6760
vn -0.0165 0.3260 -0.9452
vn -0.6649 -0.0027 -0.7470
vn -0.9621 0.2721 -0.0178
vn -0.6414 0.4540 0.6185
vn 0.0561 0.7243 0.6872
vn 0.6991 0.3140 0.6425
vn 0.9943 0.0531 -0.0924
vn 0.5851 -0.1576 -0.7955
vn -0.0284 0.0001 -0.9996
vn -0.6601 0.1528 -0.7355
vn -0.9524 0.3049 0.0042
vn -0.6621 0.2813 0.6946
vn 0.0163 0.1256 0.9919
vn 0.7890 -0.0508 0.6123
vn 0.9727 -0.0969 -0.2107
vn 0.5753 -0.0682 -0.8151
vn 0.0012 0.4834 -0.8754
vn -0.6691 0.4760 -0.5708
vn -0.9652 0.2377 0.1086
vn -0.6754 -0.1207 0.7275
vn 0.0211 -0.4011 0.9158
vn 0.7485 -0.4071 0.5235
vn 0.9765 -0.1124 -0.1837
vn 0.6496 0.2524 -0.7171
vn 0.0190 0.7129 -0.7010
vn -0.6886 0.5592 -0.4618
vn -0.9935 0.0889 0.0717
vn -0.6991 -0.4204 0.5784
vn 0.0231 -0.6679 0.7439
vn 0.7300 -0.5012 0.4648
vn 0.9977 -0.0259 -0.0628
vn 0.7042 0.4709 -0.5314
vn -0.0000 0.9978 -0.0668
vn -0.5532 0.8206 0.1435
vn -0.8157 0.3602 0.4526
vn -0.5454 -0.0318 0.8375
vn -0.0000 -0.2662 0.9639
vn 0.5454 -0.0318 0.8375
vn 0.8157 0.3602 0.4526
vn 0.5532 0.8206 0.1435
vn 0.0399 0.5508 -0.8337
vn -1.0000 0.0091 -0.0009
vn -0.6589 -0.4914 0.5695
vn 0.7190 -0.3764 0.5843
vn 0.9867 0.1511 0.0603
vn 0.0256 -0.0212 -0.9994
vn -0.9919 0.0016 -0.1271
vn -0.7160 0.1973 0.6696
vn 0.6695 0.4002 0.6258
vn 0.9691 0.2289 -0.0917
vn 0.0265 0.3028 -0.9527
vn -0.9713 -0.0106 -0.2377
vn -0.0283 -0.0406 0.9988
vn 0.9797 0.1343 -0.1487
vn 0.0855 0.8234 -0.5610
vn -0.9667 0.0590 -0.2492
vn -0.0631 -0.6789 0.7315
vn 0.9726 0.2049 0.1100
vn -0.1109 0.9650 0.2378
vn -0.8820 0.2028 0.4254
vn -0.1386 -0.4922 0.8594
vn 0.7060 0.2383 0.6669
vn -0.4778 -0.5239 0.7051
vn 0.5704 -0.4431 0.6916
vn -0.5304 0.3317 0.7802
vn 0.5142 0.4153 0.7504
vn -0.0026 0.9435 0.3314
vn -0.9821 0.0750 -0.1725
vn -0.0221 -0.8374 -0.5461
vn 0.9911 0.0363 -0.1284
vn 0.0548 0.7792 0.6243
vn -0.9688 -0.2154 -0.1229
vn 0.0699 -0.6933 -0.7172
vn 0.9851 -0.0310 -0.1690
vn -0.0513 0.2435 0.9686
vn -0.9182 -0.3116 -0.2447
vn 0.0808 -0.0611 -0.9949
vn 0.9237 0.3211 -0.2091
vn -0.1580 0.3172 0.9351
vn -0.9141 0.4023 0.0515
vn -0.1246 0.8151 -0.5657
vn 0.6824 0.7135 0.1590
vn -0.0000 0.6101 0.7923
vt 0.000000 0.000000
s 1
f 8/1/8 16/1/16 15/1/15 7/1/7
f 6/1/6 14/1/14 13/1/13 5/1/5
f 4/1/4 12/1/12 11/1/11 3/1/3
f 2/1/2 10/1/10 9/1/9 1/1/1
f 1/1/1 9/1/9 16/1/16 8/1/8
f 7/1/7 15/1/15 14/1/14 6/1/6
f 5/1/5 13/1/13 12/1/12 4/1/4
f 3/1/3 11/1/11 10/1/10 2/1/2
f 10/1/10 18/1/18 17/1/17 9/1/9
f 9/1/9 17/1/17 24/1/24 16/1/16
f 15/1/15 23/1/23 22/1/22 14/1/14
f 13/1/13 21/1/21 20/1/20 12/1/12
f 11/1/11 19/1/19 18/1/18 10/1/10
f 16/1/16 24/1/24 23/1/23 15/1/15
f 14/1/14 22/1/22 21/1/21 13/1/13
f 12/1/12 20/1/20 19/1/19 11/1/11
f 24/1/24 32/1/32 31/1/31 23/1/23
f 22/1/22 30/1/30 29/1/29 21/1/21
f 20/1/20 28/1/28 27/1/27 19/1/19
f 18/1/18 26/1/26 25/1/25 17/1/17
f 17/1/17 25/1/25 32/1/32 24/1/24
f 23/1/23 31/1/31 30/1/30 22/1/22
f 21/1/21 29/1/29 28/1/28 20/1/20
f 19/1/19 27/1/27 26/1/26 18/1/18
f 27/1/27 35/1/35 34/1/34 26/1/26
f 32/1/32 40/1/40 39/1/39 31/1/31
f 30/1/30 38/1/38 37/1/37 29/1/29
f 28/1/28 36/1/36 35/1/35 27/1/27
f 26/1/26 34/1/34 33/1/33 25/1/25
f 25/1/25 33/1/33 40/1/40 32/1/32
f 31/1/31 39/1/39 38/1/38 30/1/30
f 29/1/29 37/1/37 36/1/36 28/1/28
f 40/1/40 48/1/48 47/1/47 39/1/39
f 38/1/38 46/1/46 45/1/45 37/1/37
f 36/1/36 44/1/44 43/1/43 35/1/35
f 34/1/34 42/1/42 41/1/41 33/1/33
f 33/1/33 41/1/41 48/1/48 40/1/40
f 39/1/39 47/1/47 46/1/46 38/1/38
f 37/1/37 45/1/45 44/1/44 36/1/36
f 35/1/35 43/1/43 42/1/42 34/1/34
f 43/1/43 51/1/51 50/1/50 42/1/42
f 48/1/48 56/1/56 55/1/55 47/1/47
f 46/1/46 54/1/54 53/1/53 45/1/45
f 44/1/44 52/1/52 51/1/51 43/1/43
f 42/1/42 50/1/50 49/1/49 41/1/41
f 41/1/41 49/1/49 56/1/56 48/1/48
f 47/1/47 55/1/55 54/1/54 46/1/46
f 45/1/45 53/1/53 52/1/52 44/1/44
f 14/1/14 61/1/61 60/1/60 13/1/13
f 14/1/14 21/1/21 57/1/57 61/1/61
f 57/1/57 58/1/58 63/1/63 62/1/62
f 61/1/61 66/1/66 65/1/65 60/1/60
f 66/1/66 70/1/70 69/1/69 65/1/65
f 57/1/57 62/1/62 66/1/66 61/1/61
f 63/1/63 68/1/68 67/1/67 62/1/62
f 80/1/80 82/1/82 81/1/81 79/1/79
f 59/1/59 64/1/64 63/1/63 58/1/58
f 66/1/66 62/1/62 67/1/67 70/1/70
f 64/1/64 69/1/69 68/1/68 63/1/63
f 69/1/69 70/1/70 74/1/74 73/1/73
f 68/1/68 69/1/69 73/1/73 72/1/72
f 67/1/67 68/1/68 72/1/72 71/1/71
f 67/1/67 71/1/71 74/1/74 70/1/70
f 72/1/72 76/1/76 75/1/75 71/1/71
f 74/1/74 71/1/71 75/1/75 78/1/78
f 73/1/73 74/1/74 78/1/78 77/1/77
f 72/1/72 73/1/73 77/1/77 76/1/76
f 13/1/13 59/1/59 58/1/58 12/1/12
f 64/1/64 81/1/81 82/1/82 65/1/65
f 64/1/64 65/1/65 69/1/69
f 59/1/59 79/1/79 81/1/81 64/1/64
f 65/1/65 82/1/82 80/1/80 60/1/60
f 16/1/16 86/1/86 83/1/83 17/1/17
f 9/1/9 85/1/85 86/1/86 16/1/16
f 10/1/10 84/1/84 85/1/85 9/1/9
f 84/1/84 88/1/88 89/1/89 85/1/85
f 83/1/83 87/1/87 88/1/88 84/1/84
f 86/1/86 90/1/90 87/1/87 83/1/83
f 85/1/85 89/1/89 90/1/90 86/1/86
f 90/1/90 94/1/94 91/1/91 87/1/87
f 89/1/89 93/1/93 94/1/94 90/1/90
f 88/1/88 92/1/92 93/1/93 89/1/89
f 87/1/87 91/1/91 92/1/92 88/1/88
f 93/1/93 97/1/97 98/1/98 94/1/94
f 92/1/92 96/1/96 97/1/97 93/1/93
f 91/1/91 95/1/95 96/1/96 92/1/92
f 94/1/94 98/1/98 95/1/95 91/1/91
f 98/1/98 97/1/97 96/1/96 95/1/95
f 49/1/49 50/1/50 99/1/99 56/1/56
f 56/1/56 99/1/99 54/1/54 55/1/55
f 50/1/50 51/1/51 52/1/52 99/1/99
f 99/1/99 52/1/52 53/1/53 54/1/54
f 59/1/59 13/1/13 60/1/60
f 78/1/78 75/1/75 76/1/76 77/1/77
f 59/1/59 60/1/60 80/1/80 79/1/79
f 17/1/17 83/1/83 84/1/84 10/1/10
f 12/1/12 58/1/58 57/1/57 21/1/21
